<svg width="143" height="70" viewBox="0 0 143 70" fill="none" xmlns="http://www.w3.org/2000/svg">
<path d="M1.0424 53.2827C0.347468 53.2827 0 53.0361 0 52.5427C0 52 0.496382 51.6547 1.48915 51.5066L2.97829 51.2846C4.07034 51.1366 4.81491 50.8899 5.21201 50.5446C5.65876 50.1499 5.98141 49.4345 6.17996 48.3985L16.3062 4.88425C16.5544 3.8482 16.5544 3.1575 16.3062 2.81214C16.058 2.46679 15.4375 2.19545 14.4447 1.9981L12.9556 1.70209C12.3103 1.55408 11.9876 1.28273 11.9876 0.888047C11.9876 0.296016 12.4344 0 13.3279 0H28.2938C32.5627 0 35.9381 1.57875 38.42 4.73624C40.9515 7.8444 42.2173 12.482 42.2173 18.649C42.2173 23.1879 41.4976 27.5541 40.0581 31.7476C38.6185 35.8918 36.6827 39.592 34.2504 42.8482C31.8181 46.055 29.0384 48.5958 25.9112 50.4706C22.8336 52.3454 19.6071 53.2827 16.2317 53.2827H1.0424ZM16.604 51.3586C19.4334 51.3586 22.089 50.3226 24.5709 48.2505C27.0528 46.1784 29.2369 43.3662 31.1232 39.814C33.0094 36.2125 34.4738 32.167 35.5162 27.6774C36.6082 23.1879 37.1542 18.5503 37.1542 13.7647C37.1542 9.81784 36.3352 6.85769 34.6971 4.88425C33.0591 2.91082 30.7757 1.9241 27.8471 1.9241C24.1242 1.9241 21.8408 3.72486 20.997 7.32637L12.0621 45.9564C11.6153 47.9298 11.7891 49.3359 12.5833 50.1746C13.4271 50.964 14.7674 51.3586 16.604 51.3586Z" fill="white" fill-opacity="0.7"/>
<path fill-rule="evenodd" clip-rule="evenodd" d="M48.1838 52.2467C48.8787 53.4307 50.0452 54.0228 51.6833 54.0228C52.7753 54.0228 53.9418 53.6281 55.1828 52.8387C56.4237 52.0493 57.6647 50.6926 58.9057 48.7685C60.1963 46.7951 61.3627 44.1309 62.4051 40.7761C62.7526 39.888 62.5541 39.444 61.8095 39.444C61.3131 39.444 60.9656 39.7647 60.7671 40.4061C59.4269 44.0569 58.2107 46.5484 57.1187 47.8805C56.0763 49.1632 55.1083 49.8046 54.2148 49.8046C53.4703 49.8046 52.9987 49.5085 52.8002 48.9165C52.6512 48.2751 52.7009 47.4118 52.9491 46.3264L58.4589 22.8672C59.1042 20.1044 59.0794 18.1309 58.3844 16.9469C57.6895 15.7135 56.4734 15.0968 54.736 15.0968C53.6936 15.0968 52.552 15.4915 51.311 16.2808C50.07 17.0702 48.8291 18.4269 47.5881 20.351C46.3968 22.2751 45.2551 24.9393 44.1631 28.3435C43.8156 29.2315 44.0142 29.6755 44.7588 29.6755C45.2551 29.6755 45.6026 29.3548 45.8012 28.7135C47.1414 25.0626 48.3327 22.5958 49.3751 21.3131C50.4672 19.981 51.4599 19.315 52.3534 19.315C53.098 19.315 53.5447 19.6357 53.6936 20.277C53.8922 20.8691 53.8674 21.7078 53.6192 22.7932L48.1093 46.2524C47.464 49.0152 47.4889 51.0133 48.1838 52.2467Z" fill="white" fill-opacity="0.7"/>
<path d="M72.6867 53.9488C71.0486 53.9488 69.3113 53.7021 67.4746 53.2087C65.6877 52.7154 64.3226 52.0987 63.3795 51.3586C63.032 51.0626 62.8831 50.6186 62.9327 50.0266L64.5708 40.3321C64.6701 39.6907 64.9679 39.37 65.4643 39.37C66.0103 39.37 66.2833 39.7154 66.2833 40.4061L66.4322 43.9583C66.5315 46.7704 67.2016 48.8425 68.4426 50.1746C69.7332 51.4573 71.2968 52.0987 73.1334 52.0987C74.7218 52.0987 76.0869 51.6053 77.2286 50.6186C78.3702 49.5825 78.9411 48.0778 78.9411 46.1044C78.9411 44.9696 78.7673 43.9336 78.4199 42.9962C78.0724 42.0095 77.5264 40.9734 76.7818 39.8881C76.0372 38.7533 75.0197 37.3966 73.7291 35.8178C72.0414 33.6471 70.7756 31.797 69.9317 30.2676C69.1375 28.6888 68.7404 27.0607 68.7404 25.3833C68.7404 22.2751 69.7084 19.7837 71.6443 17.9089C73.6298 16.0342 76.1365 15.0968 79.1645 15.0968C80.5047 15.0968 81.7953 15.2941 83.0362 15.6888C84.3268 16.0835 85.3941 16.6755 86.2379 17.4649C86.6846 17.8102 86.8336 18.2543 86.6846 18.797L84.5998 28.7135C84.4509 29.3548 84.1531 29.6755 83.7064 29.6755C83.2596 29.6755 82.9866 29.3302 82.8873 28.6395L82.6639 25.0873C82.4654 22.1271 82.0683 20.0057 81.4726 18.723C80.9266 17.4402 79.7601 16.7989 77.9731 16.7989C76.3847 16.7989 75.0941 17.3416 74.1013 18.4269C73.1086 19.5123 72.6122 20.8197 72.6122 22.3491C72.6122 23.9772 73.0589 25.482 73.9524 26.8634C74.8459 28.1954 76.0621 29.8975 77.6008 31.9696C79.636 34.6338 81.0011 36.7552 81.696 38.334C82.4406 39.9127 82.8129 41.5161 82.8129 43.1442C82.8129 45.2163 82.3413 47.0664 81.3982 48.6945C80.5047 50.3226 79.2885 51.6053 77.7498 52.5427C76.211 53.4801 74.5233 53.9488 72.6867 53.9488Z" fill="white" fill-opacity="0.7"/>
<path d="M97.0906 53.9488C94.3605 53.9488 92.102 52.8387 90.315 50.6186C88.528 48.3491 87.6346 45.463 87.6346 41.9602C87.6346 38.6547 88.1558 35.4232 89.1982 32.2657C90.2902 29.0588 91.7297 26.1727 93.5167 23.6072C95.3533 20.9924 97.3636 18.9203 99.5477 17.3909C101.781 15.8615 104.015 15.0968 106.249 15.0968C108.632 15.0968 110.642 15.7381 112.28 17.0209C112.528 17.2182 112.677 17.3909 112.727 17.5389C112.776 17.6376 112.752 17.8843 112.652 18.2789L110.642 27.9734C110.493 28.6641 110.17 29.0095 109.674 29.0095C109.128 29.0095 108.805 28.6395 108.706 27.8994L108.334 22.6452C108.185 20.3757 107.837 18.8956 107.291 18.2049C106.795 17.5142 106.05 17.1689 105.058 17.1689C103.668 17.1689 102.253 17.8596 100.814 19.241C99.374 20.5731 98.0338 22.3985 96.7928 24.7173C95.6015 26.9867 94.6335 29.5275 93.889 32.3397C93.194 35.1025 92.8466 37.9146 92.8466 40.7761C92.8466 46.9924 94.8817 50.1006 98.9521 50.1006C100.888 50.1006 102.625 49.2125 104.164 47.4364C105.753 45.6603 107.217 42.8975 108.557 39.148C108.706 38.6547 109.053 38.408 109.599 38.408C109.897 38.408 110.071 38.5313 110.121 38.778C110.17 38.9753 110.121 39.3947 109.972 40.0361C109.475 42.7495 108.582 45.1423 107.291 47.2144C106.001 49.2865 104.462 50.9393 102.675 52.1727C100.938 53.3567 99.0762 53.9488 97.0906 53.9488Z" fill="white" fill-opacity="0.7"/>
<path d="M110.611 69.1936C108.725 69.1936 107.26 68.7002 106.218 67.7135C105.176 66.7761 104.654 65.6167 104.654 64.2353C104.654 63.1992 104.927 62.4099 105.473 61.8672C106.02 61.3738 106.615 61.1271 107.26 61.1271C108.204 61.1271 108.874 61.3738 109.271 61.8672C109.668 62.3605 109.966 62.9279 110.164 63.5693C110.363 64.26 110.686 64.852 111.132 65.3454C111.529 65.8387 112.199 66.0854 113.143 66.0854C114.979 66.0854 116.791 65.3454 118.578 63.8653C120.365 62.4345 121.829 60.4364 122.971 57.871C124.113 55.3548 124.609 52.518 124.46 49.3605L123.343 22.7932C123.294 21.5104 123.07 20.6224 122.673 20.129C122.276 19.5863 121.78 19.315 121.184 19.315C120.092 19.315 119.05 19.981 118.057 21.3131C117.064 22.5958 116.245 25.0626 115.6 28.7135C115.451 29.3548 115.128 29.6755 114.632 29.6755C113.937 29.6755 113.664 29.2315 113.813 28.3435C114.408 24.9393 115.227 22.2751 116.27 20.351C117.362 18.4269 118.504 17.0702 119.695 16.2808C120.936 15.4915 122.077 15.0968 123.12 15.0968C124.659 15.0968 125.875 15.6395 126.768 16.7249C127.662 17.7609 128.158 19.5617 128.257 22.1271L129.3 50.5446C129.3 50.8899 129.399 51.112 129.598 51.2106C129.846 51.26 130.069 51.1366 130.268 50.8406C132.005 48.4232 133.569 45.9317 134.959 43.3662C136.398 40.7514 137.54 38.186 138.384 35.6698C139.227 33.1537 139.649 30.8349 139.649 28.7135C139.649 26.6414 139.426 25.0133 138.979 23.8292C138.533 22.5958 138.061 21.5598 137.565 20.7211C137.118 19.8824 136.894 18.9696 136.894 17.9829C136.894 16.0588 137.738 15.0968 139.426 15.0968C141.809 15.0968 143 17.7116 143 22.9412C143 25.8027 142.504 28.9355 141.511 32.3397C140.518 35.6945 139.153 39.1233 137.416 42.6262C135.728 46.0797 133.767 49.3852 131.534 52.5427C129.349 55.7002 127.041 58.537 124.609 61.0531C122.226 63.5693 119.819 65.5427 117.387 66.9734C115.004 68.4535 112.745 69.1936 110.611 69.1936Z" fill="white" fill-opacity="0.7"/>
<path d="M55.4062 7.54838C56.0515 8.18975 56.8457 8.51043 57.7888 8.51043C58.9305 8.51043 59.9232 8.11574 60.7671 7.32637C61.6109 6.537 62.0329 5.45161 62.0329 4.0702C62.0329 3.08348 61.6854 2.29411 60.9905 1.70208C60.3452 1.06071 59.5261 0.740031 58.5334 0.740031C57.491 0.740031 56.5478 1.13472 55.704 1.92409C54.9098 2.71347 54.5127 3.77419 54.5127 5.10626C54.5127 6.04364 54.8105 6.85768 55.4062 7.54838Z" fill="white" fill-opacity="0.7"/>
</svg>
